<svg xmlns="http://www.w3.org/2000/svg" viewBox="0 0 32 32" fill="none">
  <defs>
    <radialGradient id="ice" cx="50%" cy="40%" r="55%">
      <stop offset="0%" stop-color="#ECFAFE"/>
      <stop offset="100%" stop-color="#D4EEF8"/>
    </radialGradient>
    <radialGradient id="stone-body" cx="50%" cy="35%" r="60%">
      <stop offset="0%" stop-color="#3E5C6E"/>
      <stop offset="100%" stop-color="#1C3244"/>
    </radialGradient>
    <radialGradient id="stone-top" cx="50%" cy="30%" r="60%">
      <stop offset="0%" stop-color="#4A6E84"/>
      <stop offset="100%" stop-color="#2A4A60"/>
    </radialGradient>
    <clipPath id="circle-clip">
      <circle cx="16" cy="16" r="15"/>
    </clipPath>
  </defs>

  <circle cx="16" cy="16" r="15" fill="url(#ice)"/>
  <line x1="3" y1="16" x2="29" y2="16" stroke="#004990" stroke-width="0.4" stroke-opacity="0.25" clip-path="url(#circle-clip)"/>
  <line x1="16" y1="3" x2="16" y2="29" stroke="#004990" stroke-width="0.4" stroke-opacity="0.25" clip-path="url(#circle-clip)"/>
  <circle cx="16" cy="16" r="12.5" fill="none" stroke="#004990" stroke-width="1.1"/>
  <circle cx="16" cy="16" r="9.5" fill="#ECFAFE" stroke="#004990" stroke-width="0.6"/>
  <circle cx="16" cy="16" r="7" fill="#E42734" fill-opacity="0.18" stroke="#E42734" stroke-width="1.1"/>
  <circle cx="16" cy="16" r="4" fill="#004990" fill-opacity="0.2" stroke="#004990" stroke-width="0.9"/>
  <circle cx="16" cy="16" r="1.4" fill="#004990"/>
  <ellipse cx="16" cy="14.5" rx="5.2" ry="3.6" fill="url(#stone-body)"/>
  <ellipse cx="16" cy="15.1" rx="4.8" ry="1.5" fill="none" stroke="#5A7A9A" stroke-width="0.5" stroke-opacity="0.5"/>
  <ellipse cx="16" cy="13" rx="3.6" ry="2.2" fill="url(#stone-top)"/>
  <rect x="14.2" y="10.2" width="3.6" height="1.4" rx="0.7" fill="#CC7800"/>
  <rect x="15.4" y="8.4" width="1.2" height="2.2" rx="0.6" fill="#CC7800"/>
  <rect x="14" y="7.6" width="4" height="1.3" rx="0.65" fill="#CC7800"/>
  <rect x="14.3" y="7.8" width="3.4" height="0.5" rx="0.25" fill="#FFB733" fill-opacity="0.5"/>
  <circle cx="16" cy="16" r="15" fill="none" stroke="#004990" stroke-width="0.6" stroke-opacity="0.35"/>
</svg>
